<svg width="21" height="20" viewBox="0 0 21 20" fill="none" xmlns="http://www.w3.org/2000/svg">
<path d="M18.9299 9.24086L16.8999 7.21086V4.25086C16.8999 3.61086 16.3899 3.10086 15.7499 3.10086H12.7899L10.7599 1.07086C10.3399 0.650859 9.65988 0.650859 9.23988 1.07086L7.20988 3.10086H4.24988C3.60988 3.10086 3.09988 3.61086 3.09988 4.25086V7.21086L1.06988 9.24086C0.649883 9.66086 0.649883 10.3409 1.06988 10.7609L3.09988 12.7909V15.7509C3.09988 16.3909 3.60988 16.9009 4.24988 16.9009H7.20988L9.23988 18.9309C9.65988 19.3509 10.3399 19.3509 10.7599 18.9309L12.7899 16.9009H15.7499C16.3899 16.9009 16.8999 16.3809 16.8999 15.7509V12.7909L18.9299 10.7609C19.3599 10.3409 19.3599 9.66086 18.9299 9.24086Z" stroke="#242424" stroke-width="1.5" stroke-linecap="round" stroke-linejoin="round"/>
</svg>
