<svg width="24" height="24" viewBox="0 0 24 24" fill="none" xmlns="http://www.w3.org/2000/svg">
<path d="M21.8052 12.2305C21.8052 11.5507 21.7501 10.8672 21.6325 10.1985H12.2002V14.0493H17.6016C17.3775 15.2913 16.6573 16.3899 15.6027 17.0881V19.5867H18.8252C20.7176 17.845 21.8052 15.2729 21.8052 12.2305Z" fill="#4285F4"/>
<path d="M12.1999 22.0008C14.897 22.0008 17.1714 21.1152 18.8286 19.5867L15.6061 17.088C14.7096 17.698 13.5521 18.0434 12.2036 18.0434C9.59474 18.0434 7.38272 16.2833 6.58904 13.917H3.26367V16.4928C4.96127 19.8696 8.41892 22.0008 12.1999 22.0008Z" fill="#34A853"/>
<path d="M6.58565 13.917C6.16676 12.675 6.16676 11.3302 6.58565 10.0882V7.51245H3.26395C1.84561 10.3381 1.84561 13.6671 3.26395 16.4928L6.58565 13.917Z" fill="#FBBC04"/>
<path d="M12.1999 5.95805C13.6256 5.936 15.0035 6.47247 16.036 7.45722L18.8911 4.60218C17.0833 2.90459 14.6838 1.97128 12.1999 2.00067C8.41892 2.00067 4.96127 4.13185 3.26367 7.51234L6.58537 10.0881C7.37538 7.71811 9.59107 5.95805 12.1999 5.95805Z" fill="#EA4335"/>
</svg>
