<svg width="152" height="24" viewBox="0 0 152 24" fill="none" xmlns="http://www.w3.org/2000/svg">
<g clip-path="url(#clip0_502_13262)">
<path d="M23.766 12.2764C23.766 11.4606 23.6999 10.6405 23.5588 9.83801H12.24V14.459H18.7217C18.4528 15.9493 17.5885 17.2677 16.323 18.1055V21.1039H20.19C22.4608 19.0138 23.766 15.9273 23.766 12.2764Z" fill="#4285F4"/>
<path d="M12.24 24.0008C15.4764 24.0008 18.2058 22.9382 20.1944 21.1039L16.3274 18.1055C15.2516 18.8375 13.8626 19.252 12.2444 19.252C9.11376 19.252 6.45934 17.1399 5.50693 14.3003H1.51648V17.3912C3.55359 21.4434 7.70278 24.0008 12.24 24.0008Z" fill="#34A853"/>
<path d="M5.50253 14.3003C4.99987 12.81 4.99987 11.1962 5.50253 9.70581V6.61487H1.51649C-0.18551 10.0056 -0.18551 14.0005 1.51649 17.3913L5.50253 14.3003Z" fill="#FBBC04"/>
<path d="M12.24 4.74966C13.9508 4.7232 15.6043 5.36697 16.8433 6.54867L20.2694 3.12262C18.1 1.0855 15.2207 -0.034466 12.24 0.000808666C7.70277 0.000808666 3.55359 2.55822 1.51648 6.61481L5.50252 9.70575C6.45052 6.86173 9.10935 4.74966 12.24 4.74966V4.74966Z" fill="#EA4335"/>
</g>
<g clip-path="url(#clip1_502_13262)">
<path d="M85.792 18.7035C85.429 19.542 84.9994 20.3139 84.5016 21.0235C83.8231 21.9908 83.2676 22.6605 82.8395 23.0323C82.1758 23.6426 81.4647 23.9552 80.7032 23.973C80.1566 23.973 79.4973 23.8175 78.73 23.5019C77.9601 23.1878 77.2525 23.0323 76.6056 23.0323C75.9271 23.0323 75.1994 23.1878 74.4211 23.5019C73.6415 23.8175 73.0136 23.9819 72.5334 23.9982C71.8032 24.0293 71.0754 23.7078 70.3489 23.0323C69.8852 22.6279 69.3052 21.9345 68.6104 20.9524C67.865 19.9035 67.2521 18.6872 66.772 17.3006C66.2578 15.8029 66 14.3526 66 12.9484C66 11.3401 66.3475 9.95284 67.0437 8.79035C67.5908 7.8566 68.3186 7.12003 69.2295 6.57931C70.1405 6.03858 71.1247 5.76304 72.1847 5.74541C72.7647 5.74541 73.5252 5.92481 74.4704 6.27739C75.4129 6.63116 76.0181 6.81056 76.2834 6.81056C76.4817 6.81056 77.154 6.60079 78.2937 6.18258C79.3714 5.79474 80.281 5.63415 81.0262 5.69741C83.0454 5.86037 84.5624 6.65634 85.5712 8.09037C83.7654 9.18456 82.8721 10.7171 82.8898 12.6831C82.9061 14.2145 83.4617 15.4888 84.5535 16.5006C85.0483 16.9703 85.6009 17.3332 86.2156 17.591C86.0823 17.9776 85.9416 18.348 85.792 18.7035V18.7035ZM81.161 0.480381C81.161 1.68066 80.7225 2.80135 79.8484 3.83865C78.7937 5.0718 77.5179 5.78437 76.1343 5.67193C76.1167 5.52793 76.1065 5.37638 76.1065 5.21713C76.1065 4.06486 76.6081 2.83172 77.4989 1.82345C77.9436 1.31295 78.5092 0.888472 79.1951 0.54986C79.8796 0.216299 80.5269 0.0318332 81.1358 0.000244141C81.1536 0.160702 81.161 0.32117 81.161 0.480365V0.480381Z" fill="black"/>
</g>
<g clip-path="url(#clip2_502_13262)">
<path d="M152 12C152 5.37258 146.627 0 140 0C133.373 0 128 5.37258 128 12C128 17.9895 132.388 22.954 138.125 23.8542V15.4688H135.078V12H138.125V9.35625C138.125 6.34875 139.917 4.6875 142.658 4.6875C143.97 4.6875 145.344 4.92188 145.344 4.92188V7.875H143.831C142.34 7.875 141.875 8.80008 141.875 9.75V12H145.203L144.671 15.4688H141.875V23.8542C147.612 22.954 152 17.9895 152 12Z" fill="#1877F2"/>
<path d="M144.671 15.4688L145.203 12H141.875V9.75C141.875 8.80102 142.34 7.875 143.831 7.875H145.344V4.92188C145.344 4.92188 143.971 4.6875 142.658 4.6875C139.917 4.6875 138.125 6.34875 138.125 9.35625V12H135.078V15.4688H138.125V23.8542C139.367 24.0486 140.633 24.0486 141.875 23.8542V15.4688H144.671Z" fill="white"/>
</g>
<defs>
<clipPath id="clip0_502_13262">
<rect width="24" height="24" fill="white"/>
</clipPath>
<clipPath id="clip1_502_13262">
<rect width="24" height="24" fill="white" transform="translate(64)"/>
</clipPath>
<clipPath id="clip2_502_13262">
<rect width="24" height="24" fill="white" transform="translate(128)"/>
</clipPath>
</defs>
</svg>
