<svg width="24" height="24" viewBox="0 0 24 24" fill="none" xmlns="http://www.w3.org/2000/svg">
<circle cx="12" cy="12" r="10" stroke="#737373" stroke-width="1.5" stroke-linecap="round" stroke-linejoin="round"/>
<path d="M10.5728 15.2165C11.1693 15.3886 11.8964 14.8896 13.3506 13.8915C14.4737 13.1207 15.0352 12.7353 15.1266 12.2151C15.1516 12.0728 15.1516 11.9272 15.1266 11.7849C15.0352 11.2647 14.4737 10.8793 13.3506 10.1085C11.8964 9.11041 11.1693 8.61137 10.5728 8.78347C10.4121 8.82984 10.2621 8.9064 10.1312 9.00889C9.64539 9.38931 9.64539 10.2595 9.64539 12C9.64539 13.7405 9.64539 14.6107 10.1312 14.9911C10.2621 15.0936 10.4121 15.1702 10.5728 15.2165Z" stroke="#737373" stroke-width="1.5" stroke-linecap="round" stroke-linejoin="round"/>
</svg>
