<svg width="24" height="24" viewBox="0 0 24 24" fill="none" xmlns="http://www.w3.org/2000/svg">
<path fill-rule="evenodd" clip-rule="evenodd" d="M1.5 21C1.5 21 0 21 0 19.5C0 18 1.5 13.5 7.5 13.5C13.5 13.5 15 18 15 19.5C15 21 13.5 21 13.5 21H1.5ZM13.4665 19.5H1.53352C1.52832 19.4994 1.52105 19.4984 1.51222 19.497C1.50807 19.4963 1.50399 19.4955 1.50001 19.4948C1.50219 19.0987 1.75031 17.9504 2.63888 16.9137C3.47001 15.944 4.92403 15 7.5 15C10.076 15 11.53 15.944 12.3611 16.9137C13.2497 17.9504 13.4978 19.0987 13.5 19.4948C13.496 19.4955 13.4919 19.4963 13.4878 19.497C13.479 19.4984 13.4717 19.4994 13.4665 19.5Z" fill="#737373"/>
<path fill-rule="evenodd" clip-rule="evenodd" d="M7.5 10.5C5.84315 10.5 4.5 9.15685 4.5 7.5C4.5 5.84315 5.84315 4.5 7.5 4.5C9.15685 4.5 10.5 5.84315 10.5 7.5C10.5 9.15685 9.15685 10.5 7.5 10.5ZM3 7.5C3 9.98528 5.01472 12 7.5 12C9.98528 12 12 9.98528 12 7.5C12 5.01472 9.98528 3 7.5 3C5.01472 3 3 5.01472 3 7.5Z" fill="#737373"/>
<path fill-rule="evenodd" clip-rule="evenodd" d="M13.5961 13.9199C14.1478 13.7435 14.7607 13.6152 15.4406 13.5496C15.7771 13.5171 16.13 13.5 16.5 13.5C22.5 13.5 24 18 24 19.5C24 20.5 23.5 21 22.5 21H16.1755C16.3867 20.5739 16.5 20.0687 16.5 19.5C16.5 17.9846 15.9341 16.437 14.8653 15.1443C14.5001 14.7026 14.0762 14.2907 13.5961 13.9199ZM16.6199 15.0007C19.1213 15.0295 20.543 15.9592 21.3611 16.9137C22.2536 17.955 22.5 19.1089 22.5 19.5H18C18 17.932 17.5162 16.3704 16.6199 15.0007Z" fill="#737373"/>
<path fill-rule="evenodd" clip-rule="evenodd" d="M21.75 8C21.75 5.65279 19.8472 3.75 17.5 3.75C15.1528 3.75 13.25 5.65279 13.25 8C13.25 10.3472 15.1528 12.25 17.5 12.25C19.8472 12.25 21.75 10.3472 21.75 8ZM17.5 5.16667C19.0648 5.16667 20.3333 6.43519 20.3333 8C20.3333 9.56481 19.0648 10.8333 17.5 10.8333C15.9352 10.8333 14.6667 9.56481 14.6667 8C14.6667 6.43519 15.9352 5.16667 17.5 5.16667Z" fill="#737373"/>
</svg>
