<svg width="14" height="12" viewBox="0 0 14 12" fill="none" xmlns="http://www.w3.org/2000/svg">
<path d="M4.40272 11.6882C9.68576 11.6882 12.5754 7.31127 12.5754 3.51559C12.5754 3.39127 12.5754 3.26751 12.567 3.14431C13.1291 2.7377 13.6144 2.23424 14 1.65751C13.4758 1.88991 12.9197 2.04225 12.3502 2.10943C12.9499 1.7505 13.3987 1.18588 13.613 0.520708C13.0492 0.855313 12.4324 1.09111 11.7891 1.21791C11.356 0.757411 10.7833 0.452482 10.1594 0.350307C9.53561 0.248133 8.89549 0.354408 8.33815 0.652689C7.7808 0.95097 7.3373 1.42463 7.07627 2.00036C6.81524 2.5761 6.75123 3.22181 6.89416 3.83759C5.75219 3.7803 4.63502 3.48352 3.61518 2.96651C2.59534 2.4495 1.69561 1.72381 0.9744 0.836548C0.607091 1.46888 0.494592 2.21743 0.659808 2.92979C0.825024 3.64216 1.25553 4.26477 1.86368 4.67087C1.40655 4.65747 0.959378 4.53415 0.56 4.31135V4.34775C0.560181 5.01091 0.789746 5.65359 1.20976 6.16679C1.62977 6.68 2.21437 7.03211 2.8644 7.16343C2.44153 7.27877 1.99784 7.29563 1.56744 7.21271C1.75106 7.7834 2.10842 8.28245 2.58956 8.64009C3.0707 8.99773 3.65157 9.19609 4.25096 9.20743C3.65542 9.67554 2.97343 10.0216 2.24401 10.2259C1.51459 10.4302 0.752042 10.4887 0 10.398C1.31357 11.2409 2.84196 11.688 4.40272 11.686" fill="#1DA1F2"/>
</svg>
